<?xml version="1.0" encoding="UTF-8"?>
<svg width="128" height="128" version="1.1" viewBox="0 0 33.9 33.9" xmlns="http://www.w3.org/2000/svg">
<g fill="#efa500">
<g transform="matrix(.118 0 0 -.118 29.3 10)">
<path d="m0 0c1.62-3.22 2.62-6.65 2.62-9.62v-98.2c0-6.92-5.45-16.4-11.4-19.8l-85-49.1c-3-1.73-7.22-2.6-11.4-2.6v-18.6c7.41 0 14.8 1.71 20.7 5.12l85 49.1c11.6 6.71 20.7 22.5 20.7 35.9v98.2c0 6.08-1.88 12.6-5 18.6z" fill="#efa500"/>
</g>
<g transform="matrix(.118 0 0 -.118 25.1 15)">
<path d="m0 0v-32.6c0-12.6-9.61-29.3-20.6-35.6l-28.3-16.3c-5.48-3.16-13-4.75-20.6-4.75v-18.6c10.7 0 21.5 2.42 29.9 7.25l28.3 16.3c16.7 9.66 29.8 32.4 29.8 51.7v32.6c0 9.27-3.04 19.3-8.02 28.3l-16.2-9.02c3.48-6.3 5.69-13.2 5.69-19.3" fill="#efa500"/>
</g>
<g transform="matrix(.118 0 0 -.118 22.4 16.9)">
<path d="m0 0c0 8.26-2.18 16-5.96 22.7l-40.5-22.5v-46.7c25.7 0 46.4 20.8 46.4 46.4" fill="#efa500"/>
</g>
</g>
<g fill="#244b5c">
<g transform="matrix(.118 0 0 -.118 15.6 30.8)">
<path d="m0 0-85 49.1c-5.99 3.46-11.4 12.9-11.4 19.8v98.2c0 2.96 1.01 6.39 2.62 9.62l-7.69 4.97-8.51 4.03c-3.12-5.98-5-12.5-5-18.6v-98.2c0-13.4 9.11-29.2 20.7-35.9l85-49.1c5.91-3.41 13.3-5.12 20.7-5.12l.001 18.6c-4.22 0-8.45.865-11.4 2.6" fill="#244b5c"/>
</g>
<g transform="matrix(.118 0 0 -.118 14.5 25)">
<path d="m0 0-28.3 16.3c-11 6.32-20.6 23-20.6 35.6v32.6c0 6.04 2.21 13 5.69 19.3l-7.74 5.25-8.51 3.78c-4.98-9.01-8.02-19-8.02-28.3v-32.6c0-19.3 13.1-42 29.9-51.7l28.3-16.3c8.37-4.83 19.1-7.25 29.9-7.25v18.6c-7.54 0-15.1 1.58-20.6 4.75" fill="#244b5c"/>
</g>
<path d="m12.2 14.3c-.445.792-.702 1.7-.702 2.68 0 3.02 2.45 5.47 5.47 5.47l-1e-5-5.5-2.3-1.49z"/>
</g>
<g fill="#c85a16">
<g transform="matrix(.118 0 0 -.118 29.4 6.92)">
<path d="m0 0-85 49.1c-5.91 3.41-13.3 5.12-20.7 5.12-7.41 0-14.8-1.71-20.7-5.12l-85-49.1c-6.36-3.67-12-10.1-15.7-17.3l16.2-9c2.16 4.3 5.4 8.23 8.82 10.2l85 49.1c3 1.73 7.22 2.59 11.4 2.59h.001c4.22 0 8.45-.864 11.4-2.59l85-49.1c3.42-1.98 6.67-5.91 8.82-10.2l16.2 9c-3.77 7.23-9.37 13.6-15.7 17.3" fill="#c85a16"/>
</g>
<path d="m23.8 8.92-3.33-1.92c-.986-.569-2.25-.854-3.52-.854-1.27 0-2.53.285-3.52.854l-3.33 1.92c-1.03.593-1.94 1.6-2.57 2.76l1.91 1.06c.449-.813 1.08-1.53 1.75-1.92l3.33-1.92c.646-.373 1.53-.559 2.42-.559.889 0 1.78.186 2.42.559l3.33 1.92c.674.389 1.3 1.11 1.75 1.92l1.91-1.06c-.638-1.15-1.55-2.16-2.57-2.76"/>
<g transform="matrix(.118 0 0 -.118 16.9 11.5)">
<path d="m0 0c-17.4 0-32.5-9.58-40.5-23.7l40.5-22.5 40.5 22.5c-7.96 14.2-23.1 23.7-40.5 23.7" fill="#c85a16"/>
</g>
</g>
</svg>
