<?xml version="1.0" encoding="UTF-8"?>
<svg width="1e3" height="222" version="1.1" viewBox="0 0 1e3 222" xmlns="http://www.w3.org/2000/svg">
  <g transform="matrix(1.3333 0 0 -1.3333 -35.76 -711.02)">
    <g transform="matrix(.94702 0 0 .94421 102.01 -597.5)" fill="#ffffff">
      <path d="m0 0c-3.826 1.906-9.116 4.272-14.718 6.779-9.829 4.396-20.971 9.38-26.521 12.977-8.35 5.413-8.441 11.971-5.741 16.303 5.364 8.606 21.647 12.018 36.438 3.157 3.922-2.349 7.769-5.531 12.03-9.959l18.264 16.016c-12.501 13.473-29.755 21.171-47.57 21.171-19.209 0-40.64-9.871-45.216-31.923-3.543-17.076 6.655-31.869 27.978-40.584l27.716-12.485c9.07-4.087 13.859-10.326 12.807-16.688-1.021-6.181-7.291-10.713-15.974-11.547-6.612-.64-23.465-.232-39.032 16.718l-18.277-16.027c12.765-14.808 32.585-24.317 50.899-24.326h.044c29.84 0 44.375 16.743 47.756 31.086 3.706 15.725-4.492 31.163-20.883 39.332" fill="#ffffff"/>
    </g>
    <g transform="matrix(.94702 0 0 .94421 194.28 -606.51)" fill="#ffffff">
      <path d="m0 0c-4.225 7.574-12.314 12.695-21.609 12.695s-17.386-5.121-21.609-12.695zm26.412-12.032c0-2.822-.246-5.586-.712-8.273h-70.62c3.399-9.592 12.548-16.457 23.31-16.457 8.124 0 15.327 3.913 19.834 9.956h25.87c-6.233-19.293-24.337-33.249-45.704-33.249-26.522 0-48.022 21.5-48.022 48.023.001 26.52 21.501 48.02 48.023 48.02s48.021-21.5 48.021-48.02" fill="#ffffff"/>
    </g>
    <g transform="matrix(.94702 0 0 .94421 247.98 -617.87)" fill="#ffffff">
      <path d="m0 0c0-13.665 11.063-24.729 24.728-24.729 13.666 0 24.729 11.064 24.729 24.729 0 13.663-11.063 24.727-24.729 24.727-13.665 0-24.728-11.064-24.728-24.727m-23.293 0c0 26.521 21.5 48.021 48.021 48.021 2.919 0 5.779-.26 8.555-.76l16.175-9.339v8.578h23.293v-127.43h-23.293v43.007l-16.175-9.339c-2.776-.498-5.636-.759-8.555-.759-26.521 0-48.021 21.499-48.021 48.022" fill="#ffffff"/>
    </g>
    <g transform="matrix(.94702 0 0 .94421 345.72 -622.24)" fill="#ffffff">
      <path d="m0 0c0-11.103 9-20.102 20.104-20.102 11.102 0 20.102 8.999 20.102 20.102v51.127h23.293v-51.127c0-20.005-13.555-36.858-31.974-41.875-3.638-.992-7.47-1.522-11.423-1.522s-7.782.53-11.421 1.522c-18.421 5.017-31.974 21.87-31.974 41.875v51.127h23.293v-17.424z" fill="#ffffff"/>
    </g>
    <g transform="matrix(.94702 0 0 .94421 477.47 -606.51)" fill="#ffffff">
      <path d="m0 0c-4.224 7.574-12.315 12.695-21.61 12.695s-17.385-5.121-21.609-12.695zm26.412-12.032c0-2.822-.245-5.586-.713-8.273h-70.621c3.401-9.592 12.549-16.457 23.312-16.457 8.124 0 15.328 3.913 19.833 9.956h25.87c-6.231-19.293-24.336-33.249-45.703-33.249-26.521 0-48.023 21.5-48.023 48.023.002 26.52 21.502 48.02 48.023 48.02 26.522 0 48.022-21.5 48.022-48.02" fill="#ffffff"/>
    </g>
    <g transform="matrix(.94702 0 0 .94421 548.05 -572.9)" fill="#ffffff">
      <path d="m0 0c1.914.243 3.864.368 5.845.368 25.37 0 45.937-20.566 45.937-45.938v-48.555h-23.293v48.555c0 12.506-10.138 22.644-22.644 22.644s-22.645-10.136-22.645-22.644v-48.555h-23.293v93.002h23.293v-8.575z" fill="#ffffff"/>
    </g>
    <g transform="matrix(.94702 0 0 .94421 648.12 -641.22)" fill="#ffffff">
      <path d="m0 0c7.216 0 13.707 3.085 18.226 8.01l17.164-15.742c-8.78-9.564-21.384-15.561-35.39-15.561-26.521 0-48.022 21.5-48.022 48.022 0 26.521 21.501 48.021 48.022 48.021 14.006 0 26.612-5.997 35.39-15.561l-17.164-15.744c-4.519 4.925-11.01 8.012-18.226 8.012-13.665 0-24.729-11.064-24.729-24.728 0-13.665 11.064-24.729 24.729-24.729" fill="#ffffff"/>
    </g>
    <g transform="matrix(.94702 0 0 .94421 750.31 -606.51)" fill="#ffffff">
      <path d="m0 0c-4.224 7.574-12.315 12.695-21.61 12.695s-17.385-5.121-21.609-12.695zm26.412-12.032c0-2.822-.245-5.586-.713-8.273h-70.621c3.401-9.592 12.548-16.457 23.312-16.457 8.124 0 15.328 3.913 19.832 9.956h25.87c-6.23-19.293-24.335-33.249-45.702-33.249-26.522 0-48.023 21.5-48.023 48.023.002 26.52 21.501 48.02 48.023 48.02s48.022-21.5 48.022-48.02" fill="#ffffff"/>
    </g>
    <g transform="matrix(.94226 0 0 .94452 391.39 -698.27)" fill="#efa500">
      <path d="m0 0h-50.948c-3.609 0-6.562 2.953-6.562 6.562v13.867c0 3.61 2.953 6.562 6.562 6.562h50.948c3.608 0 6.562-2.952 6.562-6.562v-13.867c0-3.609-2.954-6.562-6.562-6.562" fill="#efa500"/>
    </g>
    <g transform="matrix(.94702 0 0 .94452 487.41 -698.27)" fill="#c85a16">
      <path d="m0 0h-77.156c-3.61 0-6.562 2.953-6.562 6.562v13.867c0 3.61 2.952 6.562 6.562 6.562h77.156c3.609 0 6.562-2.952 6.562-6.562v-13.867c0-3.609-2.953-6.562-6.562-6.562" fill="#c85a16"/>
    </g>
    <g transform="matrix(.94702 0 0 .94452 657.76 -698.27)" fill="#a9cabf">
      <path d="m0 0h-155.62c-3.61 0-6.563 2.953-6.563 6.562v13.867c0 3.61 2.953 6.562 6.563 6.562h155.62c3.608 0 6.562-2.952 6.562-6.562v-13.867c0-3.609-2.954-6.562-6.562-6.562" fill="#a9cabf"/>
    </g>
    <g transform="matrix(.94702 0 0 .94452 741.87 -698.27)" fill="#ffffff">
      <path d="m0 0h-64.545c-3.609 0-6.561 2.953-6.561 6.562v13.867c0 3.61 2.952 6.562 6.561 6.562h64.545c3.609 0 6.562-2.952 6.562-6.562v-13.867c0-3.609-2.953-6.562-6.562-6.562" fill="#ffffff"/>
    </g>
    <text transform="scale(1,-1)" x="195.75246" y="810.53668" font-family="Consolas" font-size="14px" stroke-width=".75" style="line-height:1.25" xml:space="preserve"><tspan x="195.75246" y="810.53668" stroke-width=".75"/></text>
  </g>
</svg>
