<?xml version="1.0" encoding="UTF-8"?>
<svg width="256" height="256" version="1.1" viewBox="0 0 256 256" xmlns="http://www.w3.org/2000/svg">
  <g transform="matrix(1.33 0 0 -1.33 -37.8 -713)">
    <g transform="matrix(1.22 0 0 1.42 104 -579)" fill="#efa500">
      <path d="m0 0h-50.9c-3.61 0-6.56 2.95-6.56 6.56v13.9c0 3.61 2.95 6.56 6.56 6.56h50.9c3.61 0 6.56-2.95 6.56-6.56v-13.9c0-3.61-2.95-6.56-6.56-6.56" fill="#efa500"/>
    </g>
    <g transform="matrix(1.23 0 0 1.42 137 -626)" fill="#c85a16">
      <path d="m0 0h-77.2c-3.61 0-6.56 2.95-6.56 6.56v13.9c0 3.61 2.95 6.56 6.56 6.56h77.2c3.61 0 6.56-2.95 6.56-6.56v-13.9c0-3.61-2.95-6.56-6.56-6.56" fill="#c85a16"/>
    </g>
    <g transform="matrix(1.07 0 0 1.42 207 -674)" fill="#a9cabf">
      <path d="m0 0h-156c-3.61 0-6.56 2.95-6.56 6.56v13.9c0 3.61 2.95 6.56 6.56 6.56h156c3.61 0 6.56-2.95 6.56-6.56v-13.9c0-3.61-2.95-6.56-6.56-6.56" fill="#a9cabf"/>
    </g>
    <g transform="matrix(1.24 0 0 1.42 122 -721)" fill="#ffffff">
      <path d="m0 0h-64.5c-3.61 0-6.56 2.95-6.56 6.56v13.9c0 3.61 2.95 6.56 6.56 6.56h64.5c3.61 0 6.56-2.95 6.56-6.56v-13.9c0-3.61-2.95-6.56-6.56-6.56" fill="#ffffff"/>
    </g>
  </g>
</svg>
