<?xml version="1.0" encoding="UTF-8"?>
<svg id="icon" fill="currentColor" width="128" height="128" version="1.1" viewBox="0 0 33.9 33.9" xmlns="http://www.w3.org/2000/svg">
  <g transform="translate(.22 .171)" stroke-width=".265" aria-label="#DRE">
    <path d="m9.33 17.7-.237 1.59h-1.24l-.214 1.42h-1.55l.214-1.42h-1.58l-.214 1.42h-1.55l.214-1.42h-1.24l.237-1.59h1.25l.282-1.86h-1.25l.237-1.6h1.25l.214-1.42h1.54l-.214 1.42h1.59l.214-1.42h1.54l-.214 1.42h1.24l-.237 1.6h-1.24l-.282 1.86zm-4.09-1.86-.282 1.86h1.59l.248-1.68.0226-.181z"/>
    <path d="m13.7 12.8q1.04 0 1.92.553.881.542 1.39 1.44.508.903.508 1.95 0 1.05-.508 1.95-.508.903-1.39 1.46-.881.542-1.92.542h-2.63v-7.9zm0 6.37q.926 0 1.59-.711.677-.722.677-1.7 0-.643-.305-1.2t-.835-.881q-.519-.339-1.13-.339h-1.1v4.83z"/>
    <path d="m24.6 20.4.192.316h-1.79l-.192-.316-1.63-2.73h-1.19v3.05h-1.54v-7.9h3.84q.655 0 1.21.327.564.327.892.892.327.553.327 1.21 0 .835-.508 1.49-.508.643-1.29.858zm-2.3-4.27q.361 0 .621-.26.271-.271.271-.632t-.271-.621q-.26-.271-.621-.271h-2.3v1.78z"/>
    <path d="m31.5 14.3h-4.13v1.65h3.62v1.54h-3.62v1.65h4.13v1.54h-5.67v-7.9h5.67z"/>
  </g>
</svg>
