<?xml version="1.0" encoding="UTF-8"?>
<svg width="128" height="128" preserveAspectRatio="xMinYMin meet" version="1.1" viewBox="0 0 128 128" xmlns="http://www.w3.org/2000/svg">
  <g transform="matrix(.581 0 0 .583 -24.2 1.07)">
    <g transform="matrix(1.27 0 0 -1.27 3.37 208)">
      <g transform="scale(.1)">
        <path d="m733 319h-64.8c-2.28 109-8.6 212-18.9 309h-.571l-98.7-309h-49.4l-98.1 309h-.578c-7.28-92.6-11.9-195-13.8-309h-59.1c3.82 138 13.4 267 28.7 387h80.4l93.5-285h.574l94.1 285h76.9c16.8-141 26.8-270 29.8-387" fill="#00758F"/>
        <path d="m1014 605c-26.4-143-61.2-247-104-312-33.7-50-70.6-75.1-111-75.1-10.7 0-23.9 3.23-39.6 9.64v34.5c7.66-1.12 16.6-1.72 27-1.72 18.7 0 33.8 5.18 45.3 15.5 13.8 12.6 20.6 26.8 20.6 42.4 0 10.7-5.37 32.7-16.1 66l-71.2 221h63.7l51.1-165c11.5-37.5 16.3-63.7 14.3-78.6 27.9 74.6 47.4 156 58.5 244h61.4" fill="#00758F"/>
        <path d="m1298 427c0-32.9-12.1-59.8-36.1-80.9-24.1-21-56.4-31.5-96.9-31.5-37.9 0-74.6 12.1-110 36.2l16.6 33.3c30.6-15.3 58.3-22.9 83.2-22.9 23.3 0 41.6 5.19 54.8 15.4 13.2 10.3 21.1 24.7 21.1 43 0 23-16 42.7-45.5 59.2-27.2 14.9-81.5 46-81.5 46-29.4 21.5-44.2 44.5-44.2 82.4 0 31.4 11 56.7 33 76 22 19.3 50.4 29 85.2 29 36 0 68.7-9.6 98.1-28.7l-15-33.2c-25.2 10.7-50 16-74.6 16-19.9 0-35.2-4.77-45.9-14.4-10.7-9.52-17.4-21.8-17.4-36.7 0-22.9 16.4-42.8 46.6-59.7 27.5-14.9 83.1-46.6 83.1-46.6 30.3-21.4 45.3-44.3 45.3-81.9" fill="#F29111"/>
        <path d="m1414 397c-15.7 25.2-23.6 65.8-23.6 122 0 97.5 29.7 146 89 146 31 0 53.8-11.7 68.3-35 15.7-25.3 23.5-65.4 23.5-121 0-98.3-29.7-148-89-148-31 0-53.8 11.7-68.3 35m231-86.8-71.2 35.1c6.34 5.2 12.4 10.8 17.8 17.3 30.2 35.5 45.4 88.1 45.4 158 0 128-50.3 192-151 192-49.4 0-87.8-16.2-115-48.8-30.2-35.6-45.3-88-45.3-157 0-68.1 13.4-118 40.2-150 24.4-28.7 61.3-43 111-43 18.4 0 35.3 2.27 50.7 6.81l92.7-54 25.3 43.5" fill="#F29111" fill-rule="evenodd"/>
        <path d="m1877 319h-184v387h62v-340h122v-47.6" fill="#F29111"/>
        <path d="m1922 319h10.3v39.4h13.4v8.05h-37.7v-8.05h14zm78.2 0h9.68v47.5h-14.6l-11.8-32.4-12.9 32.4h-14v-47.5h9.16v36.1h.52l13.5-36.1h6.98l13.5 36.1v-36.1" fill="#F29111"/>
        <path d="m1955 836c-37.5.937-66.5-2.8-90.8-13.1-7.02-2.8-18.2-2.8-19.2-11.7 3.77-3.74 4.22-9.82 7.52-15 5.6-9.36 15.4-22 24.3-28.5 9.83-7.49 19.7-15 30-21.5 18.2-11.3 38.8-17.8 56.6-29 10.3-6.54 20.6-15 30.9-22 5.13-3.74 8.38-9.84 15-12.2v1.42c-3.3 4.2-4.22 10.3-7.48 15-4.67 4.64-9.36 8.88-14 13.5-13.6 18.2-30.4 34.1-48.7 47.3-15 10.3-47.8 24.4-53.8 41.6 0 0-.49.496-.95.957 10.3.95 22.5 4.7 32.3 7.54 15.9 4.2 30.4 3.25 46.8 7.45 7.5 1.89 15 4.24 22.5 6.54v4.24c-8.47 8.41-14.5 19.7-23.4 27.6-23.8 20.6-50.1 40.7-77.2 57.6-14.5 9.36-33.2 15.4-48.7 23.4-5.59 2.81-14.9 4.2-18.2 8.91-8.43 10.3-13.1 23.8-19.2 36-13.6 25.7-26.7 54.3-38.4 81.4-8.42 18.2-13.6 36.5-23.9 53.3-48.2 79.6-101 128-181 175-17.3 9.84-37.9 14-59.9 19.2-11.7.49-23.4 1.4-35.1 1.86-7.5 3.29-15 12.2-21.5 16.4-26.7 16.8-95.5 53.3-115 5.14-12.6-30.4 18.7-60.4 29.5-75.8 7.95-10.8 18.3-22.9 23.8-35.1 3.28-7.96 4.22-16.4 7.51-24.8 7.48-20.6 14.5-43.5 24.3-62.7 5.13-9.83 10.7-20.1 17.3-29 3.78-5.18 10.3-7.49 11.7-15.9-6.53-9.35-7.04-23.4-10.8-35.1-16.8-52.9-10.3-118 13.6-157 7.47-11.7 25.3-37.4 49.2-27.6 21.1 8.41 16.4 35.1 22.5 58.5 1.4 5.66.46 9.37 3.26 13.1v-.946c6.55-13.1 13.1-25.7 19.2-38.8 14.5-22.9 39.8-46.8 60.9-62.7 11.2-8.46 20.1-22.9 34.1-28.1v1.41h-.92c-2.82 4.2-7.02 6.09-10.8 9.35-8.42 8.43-17.8 18.7-24.3 28.1-19.6 26.2-37 55.2-52.4 85.2-7.51 14.5-14 30.4-20.1 44.9-2.8 5.59-2.8 14-7.49 16.8-7.04-10.3-17.3-19.2-22.4-31.8-8.9-20.1-9.83-44.9-13.1-70.7-1.86-.489-.92 0-1.86-.93-15 3.74-20.1 19.2-25.7 32.2-14 33.3-16.4 86.6-4.21 125 3.26 9.81 17.3 40.7 11.7 50.1-2.83 8.93-12.2 14-17.3 21.1-6.07 8.89-12.7 20.1-16.8 30-11.2 26.2-16.9 55.2-29 81.4-5.62 12.2-15.5 24.8-23.4 36-8.91 12.6-18.7 21.5-25.8 36.5-2.32 5.16-5.6 13.6-1.87 19.2.92 3.75 2.82 5.16 6.57 6.1 6.05 5.15 23.4-1.39 29.5-4.2 17.3-7 31.8-13.6 46.3-23.4 6.56-4.69 13.6-13.6 22-15.9h9.85c15-3.25 31.8-.91 45.9-5.14 24.8-7.95 47.2-19.6 67.4-32.3 61.3-38.8 112-94.1 146-160 5.63-10.8 7.99-20.6 13.1-31.8 9.83-23 22-46.4 31.8-68.8 9.82-22 19.2-44.4 33.3-62.7 7-9.81 35.1-15 47.7-20.1 9.34-4.2 23.9-7.95 32.3-13.1 15.9-9.81 31.8-21.1 46.8-31.8 7.47-5.62 30.9-17.3 32.3-26.7" fill="#00758F" fill-rule="evenodd"/>
        <path d="m1478 1243c-7.94 0-13.5-.96-19.2-2.35v-.94h.91c3.78-7.47 10.3-12.7 15-19.2 3.77-7.49 7.05-15 10.8-22.4.46.46.91.95.91.95 6.6 4.66 9.87 12.1 9.87 23.4-2.83 3.3-3.27 6.55-5.63 9.84-2.8 4.67-8.89 7.01-12.6 10.8" fill="#00758F" fill-rule="evenodd"/>
      </g>
    </g>
  </g>
</svg>
