<?xml version="1.0" encoding="UTF-8"?>
<svg id="icon" fill="currentColor" width="128" height="128" version="1.1" viewBox="0 0 33.9 33.9" xmlns="http://www.w3.org/2000/svg">
  <g stroke-width=".265" aria-label="REST">
    <path d="m10.5 31.9.18.296h-1.68l-.18-.296-1.52-2.56h-1.11v2.86h-1.44v-7.41h3.6q.614 0 1.13.307.529.307.836.836.307.519.307 1.13 0 .783-.476 1.4-.476.603-1.21.804zm-2.16-4q.339 0 .582-.243.254-.254.254-.593 0-.339-.254-.582-.243-.254-.582-.254h-2.16v1.67z"/>
    <path d="m17 26.2h-3.87v1.55h3.4v1.44h-3.4v1.55h3.87v1.44h-5.31v-7.41h5.31z"/>
    <path d="m22 28.3q.529.265.836.667.307.402.37.847.0741.434-.0741.878-.148.444-.487.794-.328.349-.889.571-.561.222-1.25.222-.773 0-1.57-.381-.783-.381-1.31-1.03l1.11-.984q.487.561 1.05.783.561.212 1.06.159.444-.0423.667-.286.222-.243.0952-.55-.127-.317-.614-.54l-1.5-.677q-.868-.36-1.3-.952-.423-.603-.265-1.34.18-.868.9-1.33.73-.466 1.63-.466.815 0 1.51.349.698.339 1.19.889l-1.11.974q-.36-.381-.688-.582-.741-.444-1.43-.18-.476.169-.508.529-.0423.317.36.571.159.106.466.254t.593.286q.296.127.646.286.349.159.519.243z"/>
    <path d="m23.6 24.8h5.46v1.44h-2.01v5.97h-1.44v-5.97h-2.01z"/>
  </g>
  <g transform="matrix(.353 0 0 .353 6.15 1.57)">
    <path d="m36 60h24v-24h-24zm2-22h9v12.6l-4.29-4.29-1.41 1.41 6.71 6.71 6.71-6.71-1.41-1.41-4.29 4.29v-12.6h9v20h-20z"/>
    <path d="m10.5 6c-2.48 0-4.5 2.02-4.5 4.5s2.02 4.5 4.5 4.5 4.5-2.02 4.5-4.5-2.02-4.5-4.5-4.5zm0 7c-1.38 0-2.5-1.12-2.5-2.5s1.12-2.5 2.5-2.5 2.5 1.12 2.5 2.5-1.12 2.5-2.5 2.5z"/>
    <circle cx="50" cy="9" r="1"/>
    <circle cx="46" cy="9" r="1"/>
    <circle cx="52" cy="12" r="1"/>
    <circle cx="48" cy="12" r="1"/>
    <circle cx="42" cy="9" r="1"/>
    <circle cx="44" cy="12" r="1"/>
    <circle cx="38" cy="9" r="1"/>
    <circle cx="40" cy="12" r="1"/>
    <circle cx="34" cy="9" r="1"/>
    <circle cx="36" cy="12" r="1"/>
    <path d="m60 16.4v-11.8c0-2.54-2.07-4.61-4.61-4.61h-50.8c-2.54 0-4.61 2.07-4.61 4.61v11.8c0 1.47.703 2.76 1.78 3.61-1.07.845-1.78 2.14-1.78 3.61v11.8c0 1.47.703 2.76 1.78 3.61-1.07.845-1.78 2.14-1.78 3.61v11.8c0 2.54 2.07 4.61 4.61 4.61h28.4v-2h-28.4c-1.44 0-2.61-1.17-2.61-2.61v-11.8c0-1.44 1.17-2.61 2.61-2.61h21.4v-2h-21.4c-1.44 0-2.61-1.17-2.61-2.61v-11.8c0-1.44 1.17-2.61 2.61-2.61h50.8c1.44 0 2.61 1.17 2.61 2.61v8.39h2v-8.39c0-1.47-.703-2.76-1.78-3.61 1.07-.845 1.78-2.14 1.78-3.61zm-55.4 2.61c-1.44 0-2.61-1.17-2.61-2.61v-11.8c0-1.44 1.17-2.61 2.61-2.61h50.8c1.44 0 2.61 1.17 2.61 2.61v11.8c0 1.44-1.17 2.61-2.61 2.61z"/>
    <path d="m6 29.5c0 2.48 2.02 4.5 4.5 4.5s4.5-2.02 4.5-4.5-2.02-4.5-4.5-4.5-4.5 2.02-4.5 4.5zm7 0c0 1.38-1.12 2.5-2.5 2.5s-2.5-1.12-2.5-2.5 1.12-2.5 2.5-2.5 2.5 1.12 2.5 2.5z"/>
    <circle cx="50" cy="28" r="1"/>
    <circle cx="46" cy="28" r="1"/>
    <circle cx="52" cy="31" r="1"/>
    <circle cx="48" cy="31" r="1"/>
    <circle cx="42" cy="28" r="1"/>
    <circle cx="44" cy="31" r="1"/>
    <circle cx="38" cy="28" r="1"/>
    <circle cx="40" cy="31" r="1"/>
    <circle cx="34" cy="28" r="1"/>
    <circle cx="36" cy="31" r="1"/>
    <path d="m6 48.5c0 2.48 2.02 4.5 4.5 4.5s4.5-2.02 4.5-4.5-2.02-4.5-4.5-4.5-4.5 2.02-4.5 4.5zm7 0c0 1.38-1.12 2.5-2.5 2.5s-2.5-1.12-2.5-2.5 1.12-2.5 2.5-2.5 2.5 1.12 2.5 2.5z"/>
  </g>
</svg>
