<?xml version="1.0" encoding="utf-8"?>
<!-- Generator: Adobe Illustrator 21.0.2, SVG Export Plug-In . SVG Version: 6.00 Build 0)  -->
<svg version="1.1" id="icon" fill="currentColor" xmlns="http://www.w3.org/2000/svg" xmlns:xlink="http://www.w3.org/1999/xlink" x="0px" y="0px"
	 viewBox="0 0 402.3 52" enable-background="new 0 0 402.3 52" xml:space="preserve">
<g>
	<path d="M126.3,13.9c0-2.7,2.1-4.3,6.3-4.3c5.2,0,7.2,2,7.5,6.7l12-1.2C151.5,3.2,142.3,0.2,133,0.2
		c-10.9,0-19.7,5.3-19.7,15.6c0,18.9,26.3,12.1,26.3,21.3c0,3.7-3,4.9-7.1,4.9c-6.9,0-8.4-3.7-9.2-8.3l-11.9,2
		c0.7,14.3,12.2,16.1,20.7,16.1c10.7,0,20.7-4.7,20.7-16.4C152.9,16.9,126.3,22.8,126.3,13.9z"/>
	<rect x="165.5" y="1.1" width="13.4" height="49.8"/>
	<polygon points="227.2,33.2 210.3,1.1 194.6,1.1 194.6,50.9 206.8,50.9 206.8,19.1 224.1,50.9 239.3,50.9 
		239.3,1.1 227.2,1.1 	"/>
	<path d="M277.9,33.6h7.3v1.2c0,3.2-2.5,6.8-9,6.8c-8.8,0-11.3-5.9-11.3-15.8c0-9.5,3.3-15.1,11.6-15.1
		c7.2,0,8.6,4.7,9,8.5l12.4-1.2c-0.9-12.9-9.5-17.8-21.2-17.8c-17.3,0-25.7,11-25.7,26.7c0,14.4,6.4,24.8,22.1,24.8
		c6,0,12.1-2,14.5-6.6l1.3,5.8h9.7V24.6h-20.6V33.6z"/>
	<polygon points="324.7,31.4 344.5,31.4 344.5,21.1 324.7,21.1 324.7,11.7 345.6,11.7 345.6,1.1 311.3,1.1 
		311.3,50.9 347.2,50.9 347.2,40.1 324.7,40.1 	"/>
	<path d="M390.9,29.6c5-2.5,8.4-7,8.4-14.3c0-7.6-4.5-14.2-17.5-14.2h-21.5v49.8h13.3V32.8h4.8l9.3,18.1h14.5
		L390.9,29.6z M377.4,23h-3.7V11.2h4.6c5.1,0,7.3,1.8,7.3,5.3C385.6,21.8,381.6,23,377.4,23z"/>
	<rect x="42.5" y="2" width="56" height="9"/>
	<rect x="22.5" y="21.5" width="76" height="9"/>
	<rect x="62.5" y="41" width="36" height="9"/>
	<circle cx="46.4" cy="45.5" r="6.5"/>
	<circle cx="6.5" cy="26.5" r="6.5"/>
	<circle cx="26.2" cy="6.5" r="6.5"/>
</g>
</svg>
