<?xml version="1.0" encoding="UTF-8"?>
<svg id="icon" fill="currentColor" width="128" height="128" version="1.1" viewBox="0 0 128 128" xmlns="http://www.w3.org/2000/svg">
  <g transform="matrix(.242 0 0 .242 2 2)">
    <path d="m504 262h-13.3v-19.9c0-4.58-3.71-8.28-8.28-8.28h-56.3c-4.58 0-8.28 3.71-8.28 8.28v19.9h-6.98v-108c0-4.58-3.71-8.28-8.28-8.28h-10.4v-19.9c0-4.58-3.71-8.28-8.28-8.28h-56.3c-4.58 0-8.28 3.71-8.28 8.28v19.9h-24v-19.9c0-4.58-3.71-8.28-8.28-8.28h-56.3c-4.58 0-8.28 3.71-8.28 8.28v19.9h-10.4c-4.58 0-8.28 3.71-8.28 8.28v108h-8.65v-19.9c0-4.58-3.71-8.28-8.28-8.28h-56.3c-4.58 0-8.28 3.71-8.28 8.28v19.9h-24v-19.9c0-4.58-3.71-8.28-8.28-8.28h-56.3c-4.58 0-8.28 3.71-8.28 8.28v19.9h-16.6c-4.58 0-8.28 3.71-8.28 8.28v116c0 4.58 3.71 8.28 8.28 8.28h495c4.58 0 8.28-3.71 8.28-8.28v-116c0-4.58-3.71-8.28-8.28-8.28zm-69.7-11.6h39.8v11.6h-39.8zm-98.6-116h39.8v11.6h-39.8zm-96.9 0h39.8v11.6h-39.8zm-18.7 28.2h174v99.4h-174zm-81.5 87.8h39.8v11.6h-39.8zm-96.9 0h39.8v11.6h-39.8zm258 128h-283v-99.4h283zm196-.001h-179v-99.4h179z"/>
  </g>
</svg>
