<?xml version="1.0" encoding="UTF-8"?>
<svg id="icon" fill="currentColor" width="128" height="128" version="1.1" viewBox="0 0 128 128" xmlns="http://www.w3.org/2000/svg">
  <g transform="matrix(.6 0 0 .6 -120 -54.8)">
    <path d="m230 118c-4.58 0-8.28 3.71-8.28 8.28v19.9h-10.4c-3.79 0-6.99 2.56-7.97 6.04v127h96.2v.0664h16.6v-.0664h93.9v-126c-.753-3.8-4.1-6.67-8.12-6.67h-10.4v-19.9c0-4.58-3.71-8.28-8.28-8.28h-56.3c-4.58 0-8.29 3.71-8.29 8.28v19.9h-24v-19.9c0-4.58-3.71-8.28-8.28-8.28zm8.28 16.6h39.8v11.6h-39.8zm96.9 0h39.8v11.6h-39.8zm-116 28.2h174v99.4h-174z"/>
  </g>
</svg>
