<?xml version="1.0" encoding="UTF-8"?>
<svg id="icon" fill="currentColor" width="128" height="128" version="1.1" viewBox="0 0 128 128" xmlns="http://www.w3.org/2000/svg">
  <g id="connected--ecosystem" transform="matrix(4.04 0 0 4.04 -.583 -.581)">
    <path id="connected--ecosystem_1_" d="m16 31.4c-1.25 0-2.28-.978-2.36-2.21-3.32-.592-6.34-2.46-8.36-5.17-.37.241-.811.381-1.28.381-1.3 0-2.36-1.06-2.36-2.36 0-1.02.644-1.88 1.54-2.22-.361-1.22-.544-2.5-.544-3.78h.72c0 1.24.179 2.47.533 3.64.821-.038 1.58.363 2.03.992l4.11-2.06-2.35-4.41.636-.339 2.36 4.43 15.1-7.54c-.073-.226-.113-.469-.113-.72 0-.568.202-1.09.538-1.5-1.9-2.58-4.75-4.36-7.89-4.94-.255 1.03-1.19 1.79-2.29 1.79-1.11 0-2.04-.765-2.29-1.79-1.99.366-3.88 1.22-5.49 2.47l-.444-.567c1.71-1.34 3.73-2.24 5.87-2.62.079-1.23 1.1-2.21 2.36-2.21s2.28.977 2.36 2.21c3.32.592 6.34 2.46 8.36 5.17.37-.24.811-.38 1.28-.38 1.3 0 2.36 1.06 2.36 2.36 0 1.02-.644 1.88-1.54 2.21.36 1.22.544 2.5.544 3.79h-.72c0-1.24-.179-2.47-.532-3.64-.806.054-1.58-.363-2.03-.993l-15.1 7.53 4.2 7.88c.245-.086.507-.133.78-.133 1.1 0 2.04.765 2.29 1.79 1.99-.365 3.88-1.21 5.49-2.47l.443.566c-1.71 1.34-3.74 2.24-5.87 2.62-.079 1.23-1.1 2.21-2.36 2.21zm0-4c-.904 0-1.64.735-1.64 1.64s.736 1.64 1.64 1.64 1.64-.735 1.64-1.64-.736-1.64-1.64-1.64zm-10.2-3.86c1.9 2.58 4.75 4.36 7.89 4.94.133-.535.448-.999.876-1.32l-4.21-7.9-4.13 2.06c.072.227.112.469.112.721 0 .568-.202 1.09-.537 1.5zm-1.82-3.14c-.904 0-1.64.735-1.64 1.64s.736 1.64 1.64 1.64 1.64-.736 1.64-1.64-.736-1.64-1.64-1.64zm24-12c-.904 0-1.64.736-1.64 1.64s.735 1.64 1.64 1.64 1.64-.736 1.64-1.64-.736-1.64-1.64-1.64zm-12-7c-.904 0-1.64.736-1.64 1.64s.736 1.64 1.64 1.64 1.64-.736 1.64-1.64-.736-1.64-1.64-1.64zm14 24h-4v-.72h4zm1.36-1.36h-.72v-4h.721zm-6 0h-.72v-4h.721zm4.64-4.64h-4v-.72h4zm-24-6h-4v-.72h4zm1.36-1.36h-.72v-4h.72v4zm-6 0h-.72v-4h.72zm4.64-4.64h-4v-.72h4z"/>
  </g>
</svg>
