<?xml version="1.0" encoding="UTF-8"?>
<svg id="icon" fill="currentColor" width="128" height="128" version="1.1" viewBox="0 0 128 128" xmlns="http://www.w3.org/2000/svg">
  <g transform="matrix(.313 0 0 .313 2 2)">
    <rect x="327" y="171" width="24" height="21.2"/>
    <path d="m72 160h46.6v15.6h197v-15.6h46.6v15.6h22.8v-41.7c0-15.6-12.7-28.3-28.3-28.3h-281c-15.6 0-28.3 12.7-28.3 28.3v41.7h24.5z"/>
    <polygon points="165 59.3 268 59.3 268 94.4 277 94.4 277 41.1 156 41.1 156 94.4 165 94.4"/>
    <rect x="83.4" y="171" width="24" height="21.2"/>
    <path d="m378 254h-36.9l-18.4 31.9 18.4 31.9h36.9l18.4-31.9zm-18.4 47.8c-8.78 0-15.9-7.12-15.9-15.9s7.12-15.9 15.9-15.9 15.9 7.12 15.9 15.9-7.12 15.9-15.9 15.9z"/>
    <path d="m310 286 25-43.3h40.3l.005-4.56 9.9-11.7v-38.9h-22.8v16.5h-46.6v-16.5h-197v16.5h-46.6v-16.5h-24.5v38.9l7.59 9.14c11.9 3.97 22.1 12 28.7 22.9h90.4c8.67-11.8 22.4-18.9 37.4-18.9 18.2 0 34.9 10.8 42.4 27.4 0 0 8.45 21 0 38s-24.1 27.4-42.4 27.4c-14.9 0-28.7-7.1-37.4-18.9h-90.4c-6.15 10.2-15.5 17.9-26.4 22.1l.061 19.9h317v-26.3h-40.2z"/>
    <path d="m76.9 302h104c5.86 11.2 17.6 18.9 31.1 18.9 14.3 0 26.5-8.53 32-20.8h-34.6l-8.3-14.4 8.3-14.4h34.6c-5.5-12.2-17.8-20.8-32-20.8-13.5 0-25.3 7.68-31.1 18.9h-104c-6.34-15.1-21.3-25.7-38.7-25.7-17 0-31.7 10.2-38.3 24.8h41.4l9.91 17.2-9.91 17.2h-41.4c6.56 14.6 21.2 24.8 38.3 24.8 17.4.005 32.3-10.6 38.7-25.7z"/>
  </g>
</svg>
